<svg width="256" height="256" viewBox="0 0 256 256" fill="none" xmlns="http://www.w3.org/2000/svg">
  <rect width="256" height="256" rx="56" fill="#D5F255"/>
  <circle cx="128" cy="128" r="84" fill="#12213A"/>
  <path d="M76 180V76H118C129.333 76 138.167 78.9167 144.5 84.75C151 90.4167 154.25 98 154.25 107.5C154.25 113.833 152.583 119.25 149.25 123.75C145.917 128.083 141.25 131.417 135.25 133.75L159 180H131.25L111.75 140.5H100.75V180H76ZM100.75 121.25H116.75C121.75 121.25 125.667 120.083 128.5 117.75C131.333 115.25 132.75 111.917 132.75 107.75C132.75 103.583 131.333 100.333 128.5 98C125.667 95.5 121.75 94.25 116.75 94.25H100.75V121.25Z" fill="#D5F255"/>
  <path d="M174 180V76H197.5V161.25H226V180H174Z" fill="#D5F255"/>
</svg>
